<?xml version="1.0" encoding="utf-8"?>
<!-- Generator: Adobe Illustrator 15.0.0, SVG Export Plug-In . SVG Version: 6.00 Build 0)  -->
<!DOCTYPE svg PUBLIC "-//W3C//DTD SVG 1.1//EN" "http://www.w3.org/Graphics/SVG/1.1/DTD/svg11.dtd">
<svg version="1.1" id="Ebene_1" xmlns="http://www.w3.org/2000/svg" xmlns:xlink="http://www.w3.org/1999/xlink" x="0px" y="0px"
	 width="512px" height="512px" viewBox="0 0 512 512" enable-background="new 0 0 512 512" xml:space="preserve">
<g>
	<g>
		<path fill-rule="evenodd" clip-rule="evenodd" fill="#FFFFFF" d="M255.969,41c-21.416,29.753-45.056,73.155-63.992,104.987
			C129.62,250.809,66.393,357.316,5,459.947C5,320.299,5,180.647,5,41C88.657,41,172.311,41,255.969,41z"/>
		<path fill-rule="evenodd" clip-rule="evenodd" d="M255.969,41c1.666,0,3.333,0,4.999,0c12.385,8.307-8.645,34.496-14.998,44.994
			c-23.06,38.107-48.324,82.076-69.991,116.986c83.33,51.321,145.688,123.609,151.981,251.968c43.724,0,92.361,0,137.982,0
			c14.332,0,31.172-3.635,40.995,4.999c0,2,0,4,0,6c-2.276,1.39-3.874,3.458-5.999,4.999c-163.312,0-326.63,0-489.939,0
			c-2.207-1.459-4.092-3.24-5.999-4.999c0-2,0-4,0-6c61.393-102.631,124.62-209.139,186.977-313.96
			C210.913,114.155,234.553,70.753,255.969,41z M34.996,440.95c-2.383,4.063-6.539,8.817-5.999,13.998c94.32,0,188.644,0,282.965,0
			c-6.502-120.484-63.688-190.28-143.982-236.97C124.52,290.899,77.671,368.18,34.996,440.95z"/>
		<path fill-rule="evenodd" clip-rule="evenodd" fill="#FFFFFF" d="M260.968,41c81.99,0,163.98,0,245.97,0
			c0,139.648,0,279.3,0,418.947c-9.823-8.634-26.663-4.999-40.995-4.999c-45.621,0-94.259,0-137.982,0
			c-6.294-128.359-68.651-200.647-151.981-251.968c21.667-34.91,46.931-78.879,69.991-116.986
			C252.323,75.496,273.353,49.307,260.968,41z"/>
		<path fill-rule="evenodd" clip-rule="evenodd" fill="#FFFFFF" d="M167.979,217.978c80.295,46.69,137.48,116.486,143.982,236.97
			c-94.321,0-188.645,0-282.965,0c-0.54-5.181,3.616-9.935,5.999-13.998C77.671,368.18,124.52,290.899,167.979,217.978z"/>
		<path fill-rule="evenodd" clip-rule="evenodd" fill="#FFFFFF" d="M5,465.947c1.907,1.759,3.792,3.54,5.999,4.999c-2,0-4,0-5.999,0
			C5,469.279,5,467.613,5,465.947z"/>
		<path fill-rule="evenodd" clip-rule="evenodd" fill="#FFFFFF" d="M506.938,465.947c0,1.666,0,3.333,0,4.999c-2,0-4,0-5.999,0
			C503.063,469.405,504.661,467.337,506.938,465.947z"/>
	</g>
</g>
</svg>
