<svg version="1.1" xmlns="http://www.w3.org/2000/svg" xmlns:xlink="http://www.w3.org/1999/xlink" x="0px" y="0px"
	 width="250px" height="250px" viewBox="0 0 512 512" enable-background="new 0 0 512 512" xml:space="preserve">
<g>
	<g>
		<path fill-rule="evenodd" clip-rule="evenodd" d="M45,78c24.145-5.438,66.862-1,95-1c78.103,0,152.218,0,234,0
			c17.011,0,32.531-0.435,39,7c11.119,12.781,5,70.83,5,92c0,77.352,0,158.818,0,242c0,16.072,1.261,36.004-5,43
			c-12.187,13.618-66.644,7-93,7c-69.376,0-126.87,0-198,0c-28.654,0-79.044,5.734-90-9c-8.816-11.855-4-66.001-4-90
			c0-55.81,0-133.382,0-187c0-10.042,0-28.643,0-47C28,106.631,22.99,82.958,45,78z M114,172c-24.612,26.957-46.023,71.96-37,125
			c11.485,67.513,68.381,123,146,123c57.537,0,107.575-34.772,131-79c20.813-39.296,19.517-97.443,1-135
			c-22.478-45.591-73.653-86.838-148-80C167.623,129.622,134.459,149.592,114,172z" style="fill:#fff;"/>
		<path fill-rule="evenodd" clip-rule="evenodd" d="M437,98c20.787-5.721,17,24.277,17,45c0,79.42,0,154.159,0,235
			c0,24.235,8.479,82.035-18,75c-13.244-3.519-8-57.576-8-85c0-84.378-4.482-169.242,0-253C428.375,107.996,428.175,100.429,437,98z
			" style="fill:#fff;"/>
		<path fill-rule="evenodd" clip-rule="evenodd" d="M481,122c3.634,84.767,2,181.733,2,273c0,11.309,2.122,29.218-11,28
			c-13.325-1.237-8-51.789-8-70c0-76.019-1.636-159.622,2-231C469.207,118.971,477.694,119.519,481,122z" style="fill:#fff;"/>
		<path fill-rule="evenodd" clip-rule="evenodd" d="M174,149c16.32-1.599,32.561,17.089,46,27c27.665,20.403,53.179,38.795,83,61
			c12.38,9.218,37.367,23.049,38,33c0.809,12.707-29.971,29.127-38,35c-30.33,22.186-53.83,39.627-84,62
			c-11.832,8.773-28.433,27.857-45,27c-24.216-1.254-17-34.021-17-64c0-51.242,1-96.254,1-145C158,164.57,154.303,150.929,174,149z"
			 style="fill:#fff;"/>
	</g>
</g>
</svg>
